{"title":"Katy Perry - Birthday [Music Video] 720p [Sbyky]","uid":10073609,"size":120579002,"categoryP":"video","categoryS":"music_videos","magnet":"?xt=urn:btih:badff6515fd8ed030f0f20b15668c864b2cbb9be&amp;dn=Katy+Perry+-+Birthday+%5BMusic+Video%5D+720p+%5BSbyky%5D&amp;tr=udp%3A%2F%2Ftracker.openbittorrent.com%3A80&amp;tr=udp%3A%2F%2Fopen.demonii.com%3A1337&amp;tr=udp%3A%2F%2Ftracker.coppersurfer.tk%3A6969&amp;tr=udp%3A%2F%2Fexodus.desync.com%3A6969","seeders":2,"leechers":3,"uploader":"Sbyky","files":1,"time":1398887434,"description":"\n\nGeneral\nComplete name                            : Katy Perry - Birthday [Music Video] 720p [Sbyky].MP4\nFormat                                   : MPEG-4\nFormat profile                           : Base Media\nCodec ID                                 : isom\nFile size                                : 115 MiB\nDuration                                 : 8mn 0s\nOverall bit rate mode                    : Variable\nOverall bit rate                         : 2 007 Kbps\nEncoded date                             : UTC 2014-04-23 13:59:31\nTagged date                              : UTC 2014-04-23 13:59:31\n\nVideo\nID                                       : 1\nFormat                                   : AVC\nFormat/Info                              : Advanced Video Codec\nFormat profile                           : &lt;a class=&quot;__cf_email__&quot; href=&quot;/cdn-cgi/l/email-protection&quot; data-cfemail=&quot;571a363e39171b647966&quot;&gt;[email&amp;#160;protected]&lt;/a&gt;&lt;script cf-hash='f9e31' type=&quot;text/javascript&quot;&gt;\n/* &lt;![CDATA[ */!function(){try{var t=&quot;currentScript&quot;in document?document.currentScript:function(){for(var t=document.getElementsByTagName(&quot;script&quot;),e=t.length;e--;)if(t[e].getAttribute(&quot;cf-hash&quot;))return t[e]}();if(t&amp;&amp;t.previousSibling){var e,r,n,i,c=t.previousSibling,a=c.getAttribute(&quot;data-cfemail&quot;);if(a){for(e=&quot;&quot;,r=parseInt(a.substr(0,2),16),n=2;a.length-n;n+=2)i=parseInt(a.substr(n,2),16)^r,e+=String.fromCharCode(i);e=document.createTextNode(e),c.parentNode.replaceChild(e,c)}}}catch(u){}}();/* ]]&gt; */&lt;/script&gt;\nFormat settings, CABAC                   : Yes\nFormat settings, ReFrames                : 3 frames\nCodec ID                                 : avc1\nCodec ID/Info                            : Advanced Video Coding\nDuration                                 : 8mn 0s\nBit rate                                 : 1 877 Kbps\nWidth                                    : 1 280 pixels\nHeight                                   : 720 pixels\nDisplay aspect ratio                     : 16:9\nFrame rate mode                          : Variable\nFrame rate                               : 23.976 fps\nMinimum frame rate                       : 23.974 fps\nMaximum frame rate                       : 24.291 fps\nColor space                              : YUV\nChroma subsampling                       : 4:2:0\nBit depth                                : 8 bits\nScan type                                : Progressive\nBits/(Pixel*Frame)                       : 0.085\nStream size                              : 108 MiB (94%)\nEncoded date                             : UTC 2014-04-23 13:59:31\nTagged date                              : UTC 2014-04-23 13:59:31\n\nAudio\nID                                       : 2\nFormat                                   : AAC\nFormat/Info                              : Advanced Audio Codec\nFormat profile                           : LC\nCodec ID                                 : 40\nDuration                                 : 8mn 0s\nBit rate mode                            : Variable\nBit rate                                 : 126 Kbps\nChannel(s)                               : 2 channels\nChannel positions                        : Front: L R\nSampling rate                            : 44.1 KHz\nCompression mode                         : Lossy\nStream size                              : 7.20 MiB (6%)\nEncoded date                             : UTC 2014-04-23 13:59:29\nTagged date                              : UTC 2014-04-23 13:59:29\n\nShared By Sbyky\n","torrent":{"xt":"urn:btih:badff6515fd8ed030f0f20b15668c864b2cbb9be","amp;dn":"Katy+Perry+-+Birthday+%5BMusic+Video%5D+720p+%5BSbyky%5D","amp;tr":["udp%3A%2F%2Ftracker.openbittorrent.com%3A80","udp%3A%2F%2Fopen.demonii.com%3A1337","udp%3A%2F%2Ftracker.coppersurfer.tk%3A6969","udp%3A%2F%2Fexodus.desync.com%3A6969"],"infoHash":"badff6515fd8ed030f0f20b15668c864b2cbb9be","infoHashBuffer":{"type":"Buffer","data":[186,223,246,81,95,216,237,3,15,15,32,177,86,104,200,100,178,203,185,190]},"announce":[],"urlList":[]}}